<svg xmlns="http://www.w3.org/2000/svg" viewBox="0 0 1200 630" role="img" aria-label="f00 — next-generation ls">
  <title>f00 Open Graph</title>
  <rect width="1200" height="630" fill="#07090c"/>
  <circle cx="200" cy="100" r="320" fill="#3ecf8e" opacity="0.06"/>
  <circle cx="1000" cy="500" r="280" fill="#5eead4" opacity="0.04"/>
  <!-- mark -->
  <g transform="translate(120, 155)">
    <svg width="320" height="320" viewBox="0 0 512 512">
      <rect width="512" height="512" rx="96" fill="#0e1218"/>
      <rect x="72" y="88" width="368" height="336" rx="28" fill="#11161e" stroke="#1c2430" stroke-width="6"/>
      <circle cx="112" cy="128" r="10" fill="#5c6778"/>
      <circle cx="144" cy="128" r="10" fill="#5c6778"/>
      <circle cx="176" cy="128" r="10" fill="#3ecf8e"/>
      <g fill="#2a3544">
        <rect x="112" y="176" width="200" height="22" rx="6"/>
        <rect x="112" y="224" width="288" height="22" rx="6"/>
        <rect x="112" y="272" width="160" height="22" rx="6"/>
        <rect x="112" y="320" width="248" height="22" rx="6"/>
        <rect x="112" y="368" width="120" height="22" rx="6"/>
      </g>
      <rect x="104" y="260" width="304" height="46" rx="10" fill="#3ecf8e" opacity="0.14"/>
      <rect x="112" y="272" width="160" height="22" rx="6" fill="#3ecf8e"/>
      <text x="300" y="136"
            font-family="ui-monospace, Menlo, monospace"
            font-size="28" font-weight="600" fill="#8b97a8">f00</text>
    </svg>
  </g>
  <text x="480" y="290"
        font-family="ui-monospace, 'IBM Plex Mono', Menlo, monospace"
        font-size="120" font-weight="600" fill="#e8edf4" letter-spacing="-4">f00</text>
  <text x="480" y="360"
        font-family="'IBM Plex Sans', system-ui, sans-serif"
        font-size="36" font-weight="500" fill="#8b97a8">next-generation ls in Rust</text>
  <text x="480" y="430"
        font-family="ui-monospace, Menlo, monospace"
        font-size="28" font-weight="500" fill="#3ecf8e">f00.sh</text>
</svg>
